<svg xmlns="http://www.w3.org/2000/svg" viewBox=" 0 0 2048 1176 ">
    <path d="M595 112v858h858V112H595z" fill="transparent" stroke="#fff" stroke-width="4" class="srk-rectangle"></path>
    <path class="srk-propellers" stroke="#eee" stroke-width="4" fill="transparent" d="M635 385l1.5-.333.556-.306 1-.444.944-.528 2-.972 1-.389 2-.695 1-.333 6-2 6-2 2-.667 1-.333 1-.306 1-.305 2-.528 1-.25 1-.305 2-.612 1-.305 1-.25 2-.528 1-.305 2-.612 1-.305 2-.528 1-.222 1-.278 2-.5 1-.222 1-.278 1-.222 1-.278 1-.222 2-.5 1-.278 2-.5 1-.222 1-.278 1-.222 1-.278 1-.222 2-.5 1-.278 1-.222 1-.278 1-.222 1-.278 1-.222 1-.278 2-.472 1-.195 2-.388 1-.195 2-.472 1-.278 1-.222 1-.25 1-.195 2-.388 1-.195 2-.472 1-.278 1-.222 1-.25 1-.195 2-.388 1-.195 1-.222 1-.195 2-.388 1-.195 1-.222 1-.195 2-.388 1-.195 1-.222 1-.195 2-.388 1-.195 1-.222 1-.195 2-.388 2-.417 2-.333 1-.112 2-.333 1-.222 1-.195 2-.388 1-.195 1-.222 1-.195 2-.388 2-.417 2-.306 2-.166 2-.306 1-.222 2-.333 1-.112 2-.333 1-.222 2-.333 1-.112 1-.166 1-.167 2-.389 1-.139 2-.166 2-.306 2-.389 1-.139 2-.166 1-.139 2-.389 2-.306 1-.055 2-.111 2-.306 1-.222 2-.306 2-.111 1-.055 2-.306 1-.222 2-.306 1-.055 2-.111 2-.306 1-.222 2-.306 1-.055 1-.028 2-.028 1-.055 2-.306 1-.222 2-.306 1-.055 1-.028h2l2-.028 1-.055 2-.306 1.944-.389 1.556-.194L850 341l-1.5.806-.556.166-1 .389-.944.306-2 .639-1 .305-2 .528-1 .222-1 .278-1 .222-1 .278-1 .222-1 .278-1 .222-2 .5-1 .278-1 .222-1 .278-1 .222-1 .278-1 .222-2 .5-1 .278-1 .222-1 .278-2 .5-1 .222-1 .278-2 .472-1 .195-2 .388-1 .195-2 .472-1 .278-1 .222-1 .25-2 .389-2 .389-2 .417-2 .388-1 .195-2 .472-1 .278-1 .222-1 .25-1 .195-2 .388-1 .195-1 .222-1 .195-2 .388-1 .195-1 .222-1 .195-2 .388-1 .195-1 .222-1 .195-2 .388-1 .195-1 .222-1 .195-2 .388-2 .417-2 .333-1 .112-2 .333-1 .222-2 .333-1 .112-2 .333-1 .222-1 .195-2 .388-1 .195-1 .222-2 .333-1 .112-2 .333-1 .222-2 .333-1 .112-2 .333-1 .25-1 .222-.944.278-1 .25L733 367v2l2.056.583 1.944.334h2l2-.306 1-.222 2-.306 1-.055 2-.056 1-.055 2-.306 1-.222 2-.333 1-.112 2-.333 1-.222 2-.333 1-.112 2-.333 2-.389 2-.278 2-.333 1-.222 1-.195 2-.388 1-.195 1-.222 1-.195 2-.388 1-.195 1-.222 1-.195 2-.388 1-.195 1-.222 1-.195 2-.388 1-.195 2-.417 2-.388 1-.195 1-.25 1-.222 1-.278 2-.472 1-.195 2-.388 1-.195 1-.25 1-.222 1-.278 2-.472 1-.195 2-.388 1-.195 2-.472 1-.278 1-.222 1-.25 1-.195 2-.388 1-.195 2-.472 2-.528 1-.305 2-.612 1-.305 2-.528 1-.222 2-.5 1-.278 1-.222 1-.278 1-.222 2-.528 1-.305 2-.612 1-.305 2-.528 1-.25 2-.611 1-.333 2-.667 2-.667 1-.361 1-.361 2-.861 1-.528 1-.472 1.889-1.222 1.389-1.556.611-1.472.111-1.5-1.5-.722-.556-.028-1-.194-.944-.028-1-.028h-7l-2 .028-1 .055-2 .306-1 .222-2 .306-1 .055-1 .028h-2l-2 .028-1 .055-2 .306-1 .222-2 .306-1 .055-2 .028-1 .028-1 .055-2 .306-1 .222-2 .306-1 .055-2 .056-1 .055-2 .306-1 .222-2 .306-2 .166-1 .139-2 .389-2 .306-2 .111-1 .055-2 .306-2 .389-1 .139-2 .166-1 .139-2 .389-1 .167-1 .139-2 .166-1 .139-2 .389-1 .167-2 .278-2 .333-1 .222-2 .333-1 .112-1 .166-1 .167-2 .389-1 .139-2 .166-2 .306-1 .222-1 .195-2 .388-1 .195-1 .222-1 .195-2 .388-1 .195-1 .222-1 .195-2 .388-1 .195-1 .222-1 .195-2 .388-1 .195-1 .222-1 .195-2 .388-1 .195-1 .222-2 .333-1 .112-2 .333-1 .25-1 .222-1 .278-2 .472-1 .195-2 .388-1 .195-2 .472-1 .278-1 .222-1 .25-1 .195-2 .388-1 .195-1 .25-1 .222-1 .278-2 .472-1 .195-2 .388-1 .195-2 .472-1 .278-1 .222-2 .5-1 .278-1 .222-1 .278-1 .222-1 .278-1 .222-2 .5-1 .278-1 .222-1 .278-1 .222-1 .278-1 .222-1 .278-2 .5-1 .25-1 .305-2 .612-1 .305-1 .25-2 .528-1 .305-2 .612-1 .305-2 .528-1 .25-1 .305-2 .612-1 .305-1 .25-2 .528-2 .611-2 .667-3 1-5 1.666-4 1.334-2 .666-1 .334-1 .361-1 .361-1 .444-2 .945-1 .472-1.889 1.222-1.389 1.556-.611 1.472L635 385m552-43h11l2 .028 1 .055 2 .306 1 .222 2 .306 1 .055 2 .028h5l2 .028 1 .055 2 .306 1 .222 2 .306 1 .055 2 .028 2 .028 1 .055 2 .306 1 .222 2 .306 1 .055 2 .056 1 .055 2 .306 1 .222 2 .306 2 .111 1 .055 2 .306 1 .222 2 .306 1 .055 2 .111 2 .306.94.222 1 .167.56.139 1.5.083.36 1.417.97 1.139 1.7 1.027.97.389 2 .639 1 .25 2 .528 1 .305 2 .612 1 .305 2 .528 1 .222 1 .278 1 .222 1 .278 2 .472 1 .195 2 .388 1 .195 2 .472 1 .278 1 .222 1 .25 1 .195 2 .388 2 .417 1 .195 2 .388 1 .195 1 .222 1 .195 2 .388 1 .195 1 .222 2 .333 1 .112 2 .333 1 .222 1 .195 2 .388 1 .195 1 .222 2 .333 1 .112 2 .333 1 .222 1 .195 2 .388 1 .195 1 .222 2 .333 1 .112 2 .333 1 .222 2 .333 1 .112 2 .333 1 .222 2 .333 1 .112 2 .333 1 .222 2 .333 1 .112 2 .333 1 .222 2 .333 1 .112 2 .333 1 .222 2 .333 2 .278 2 .389 2 .333 1 .112 2 .333 2 .389 1 .139 2 .111 1 .055 1 .139 2 .389 1 .167 1 .139 2 .166 1 .139 2 .389 2 .306 1 .055 1 .028h10l2 .028 1 .055 2 .306 1 .222 2 .306h2l1-.139 1.94-.445 1-.361.56-.166 1.5-.806v-4l-1.5-.25-1.56-.389-.94-.222-1-.278-1-.222-2-.5-1-.278-2-.472-1-.195-2-.388-1-.195-1-.222-1-.195-2-.388-1-.195-1-.222-1-.195-2-.388-1-.195-1-.222-1-.195-2-.388-1-.195-1-.222-1-.195-2-.388-1-.195-1-.222-1-.195-2-.388-1-.195-1-.222-1-.195-2-.388-1-.195-1-.222-1-.195-2-.388-1-.195-1-.222-1-.195-2-.388-2-.417-2-.333-1-.112-2-.333-1-.222-1-.195-2-.388-1-.195-1-.222-2-.333-1-.112-2-.333-1-.222-1-.195-2-.388-1-.195-1-.222-2-.333-1-.112-2-.333-2-.389-2-.278-2-.333-1-.222-2-.333-1-.112-2-.333-2-.389-1-.139-2-.166-1-.139-2-.389-2-.333-1-.112-2-.333-2-.389-1-.139-2-.166-1-.139-2-.389-1-.167-1-.139-2-.166-2-.306-2-.389-1-.139-2-.166-1-.139-2-.389-1-.167-1-.139-2-.166-1-.139-2-.389-2-.306-1-.055-2-.111-2-.306-1-.222-2-.306-2-.111-1-.055-2-.306-1-.222-2-.306-1-.055-2-.111-2-.306-1-.222-2-.306-1-.055-1-.028-2-.028-1-.055-2-.306-1-.222-2-.306-2-.083-2-.028-1-.055-2-.306-1-.222-2-.306-1-.055-2-.028h-9l-2-.028-1-.055-2-.306-1-.222-2-.306-1-.055-1-.028h-14l-1 .028-1 .055-1.97.334-1.7.639-.61.527-.36.25L1187 342z"></path>
    <path class="srk-drone-arch" stroke="#eee" stroke-width="4" fill="transparent" d="M814 376l.028 1.5.222 1.556.25.944.917 1.972.611.945 1.389 1.694 1.666 1.528.945.722.972.778 1 .722 2 1.5 1 .75 2 1.389 1 .667 2 1.333 1 .667 1 .666 2 1.334 1 .666 2 1.278 1 .583 2 1.195 2 1.222 2 1.195 1 .583 2 1.222 1 .583 2 1.195 2 1.222 2 1.139 1 .472 2 1.028 1 .583 1 .556 2 1.222 1 .556 1 .583 1 .472 2 1 1 .556 1 .444 1 .556 1 .444 2 1 1 .556 1 .444 2 1 1 .556 1 .444 1 .556 1 .444 1 .556 1 .444 1 .556 1 .444 1 .556 2 1 1 .444 1 .556 2 .972 2 .861 2 .778 2 .861 1 .5 2 .861 2 .778 2 .805 1 .417 1 .361 1 .361 2 .667 1 .306 1 .305 1 .25 2 .528 1 .305 2 .612 1 .305 2 .528 1 .222 1 .278 1 .222 1 .278 2 .5 1 .222 2 .528 1 .305 2 .612 1 .305 2 .528 1 .222 1 .278 1 .222 1 .278 2 .5 1 .222 2 .528 1 .305 2 .612 1 .305 2 .528 1 .222 2 .5 1 .278 2 .472 1 .195 2 .388 1 .195 2 .417 2 .388 1 .195 1 .25 1 .222 1 .278 2 .472 1 .195 2 .388 1 .195 1 .222 1 .195 2 .388 1 .195 1 .222 2 .333 1 .112 2 .333 1 .222 2 .333 1 .112 2 .333 2 .389 1 .139 2 .166 1 .139 2 .389 2 .306 1 .055 1 .028 2 .028 1 .055 2 .306 1 .222 2 .306 1 .055 2 .028h4l2 .028 1 .055 2 .306 1 .222 2 .306 1 .055 2 .028h31l2-.028 1-.055 2-.306 1-.222 2-.306 1-.055 2-.028h4l2-.028 1-.055 2-.306 1-.222 2-.306 1-.055 1-.028 2-.028 1-.055 2-.306 1-.222 2-.306 2-.111 1-.055 2-.306 1-.222 2-.306 1-.055 2-.111 1-.139 2-.389 2-.333 1-.112 2-.333 1-.222 2-.333 1-.112 2-.333 1-.222 1-.195 2-.388 1-.195 1-.222 1-.195 2-.388 1-.195 1-.222 1-.195 2-.388 1-.195 1-.222 1-.195 2-.388 1-.195 2-.472 1-.278 1-.222 2-.5 1-.278 1-.222 2-.5 1-.278 1-.222 1-.278 1-.222 2-.528 1-.305 2-.612 1-.305 2-.528 1-.25 1-.305 2-.612 1-.305 1-.25 2-.528 1-.305 1-.306 2-.667 1-.333 2-.667 2-.666 4-1.334 2-.666 1-.334 2-.666 1-.334 2-.722 1-.417 2-.805 1-.361 1-.361 1-.334 2-.666 2-.695 1-.361 2-.861 1-.5 2-.861 2-.778 2-.805 1-.417 2-.778 1-.444 1-.417 2-.972 1-.556 2-1 1-.444 1-.556 1-.444 1-.556 2-.972 1-.417 1-.444 2-.778 1-.444 1-.417 1-.528 2-1 1-.444 1-.556 1-.444 1-.556 1-.444 1-.556 1-.444 1-.556 2-1 1-.472 2-1.139 2-1.222 2-1.139 1-.5 2-1.139 2-1.222 2-1.195 1-.583 2-1.222 2-1.195 1-.583 2-1.278 2-1.333 1-.694 1-.695 1-.75 2-1.472 1-.695 1-.694 2-1.417 2-1.583 2-1.611 1-.778 1.97-1.694.92-.889.8-.972.53-.556.78-1.5-1.5.111-1.56.528-.94.472-2 1.278-1 .75-2 1.5-1 .722-1 .778-1 .722-2 1.445-1 .694-2 1.333-2 1.334-1 .666-2 1.334-1 .666-1 .639-1 .639-1 .583-2 1.195-2 1.222-2 1.139-1 .5-2 1.139-2 1.222-2 1.139-1 .472-1 .556-1 .444-1 .556-1 .444-1 .556-2 1-1 .444-1 .556-2 1-1 .444-1 .556-1 .444-1 .556-2 .972-1 .417-1 .444-2 .778-1 .444-1 .417-1 .528-1 .444-1 .556-2 .972-1 .417-1 .444-2 .778-1 .444-1 .417-1 .528-1 .444-1 .528-2 .861-2 .778-2 .805-1 .417-2 .778-2 .805-1 .417-2 .722-1 .334-1 .361-1 .361-2 .805-1 .417-2 .722-2 .667-2 .667-2 .666-2 .667-1 .333-1 .334-2 .639-1 .305-2 .528-1 .25-2 .611-2 .667-1 .333-2 .611-2 .528-1 .25-1 .305-2 .612-1 .305-2 .528-1 .222-1 .278-1 .222-2 .5-1 .278-1 .222-1 .278-1 .222-1 .278-2 .5-1 .222-1 .278-1 .222-1 .278-2 .472-1 .195-2 .388-2 .417-1 .195-2 .388-1 .195-1 .222-1 .195-2 .388-1 .195-1 .222-1 .195-2 .388-2 .417-2 .333-1 .112-2 .333-1 .222-2 .333-1 .112-2 .333-2 .389-1 .139-2 .111-1 .055-2 .306-1 .222-2 .306-1 .055-2 .111-2 .306-1 .222-2 .306-1 .055-2 .028-1 .028-1 .055-2 .306-1 .222-2 .306-1 .055-2 .028h-5l-2 .028-1 .055-2 .306-1 .222-2 .306-1 .055-2 .028h-25l-2-.028-1-.055-2-.306-1-.222-2-.306-1-.055-2-.028h-4l-2-.028-1-.055-2-.306-1-.222-2-.306-1-.055-1-.028-2-.028-1-.055-2-.306-1-.222-2-.306-1-.055-2-.111-2-.306-2-.389-1-.166-1-.112-2-.333-1-.222-1-.195-2-.388-1-.195-1-.222-2-.333-1-.112-2-.333-2-.417-2-.388-1-.195-1-.25-1-.222-1-.278-2-.472-1-.195-2-.388-1-.195-2-.472-1-.278-1-.222-1-.25-1-.195-2-.388-1-.195-2-.472-1-.278-1-.25-1-.305-2-.612-1-.305-2-.528-1-.222-2-.5-1-.278-1-.222-1-.278-1-.222-2-.528-1-.305-2-.612-1-.305-2-.528-1-.222-2-.5-1-.278-1-.222-1-.278-1-.222-2-.528-1-.305-2-.612-1-.305-2-.528-1-.25-1-.305-1-.306-2-.667-1-.361-1-.361-1-.417-2-.805-2-.778-2-.861-1-.5-2-.861-2-.778-2-.861-2-.972-1-.556-2-1-1-.444-1-.556-1-.444-1-.556-2-.972-1-.417-1-.444-2-.778-1-.444-1-.417-2-.972-1-.556-1-.444-2-1.028-1-.583-1-.556-2-1.222-1-.556-1-.583-1-.472-2-1-1-.556-1-.444-1-.556-1-.444-2-1.028-1-.583-1-.556-2-1.222-2-1.139-1-.5-2-1.139-2-1.222-2-1.139-1-.5-2-1.139-1-.639-1-.639-1-.666-2-1.278-1-.583-2-1.195-1-.639-2-1.305-1-.667-3-2-2-1.333-1-.667-2-1.417-2-1.666-1.944-1.806-1-.805-.556-.528L814 376m258 160l-.58-2.056-.17-1-.08-.944.22-2 .22-1 .31-2 .16-2 .31-2 .25-1 .22-1 .53-2 .64-2 .78-2 .8-2 .78-2 .44-1 .42-1 .53-1 .47-1 1.14-2 1.22-2 1.2-2 .58-1 1.28-2 .66-1 1.34-2 1.33-2 1.42-2 .77-1 1.62-2 .8-1 .78-1 1.69-2 .95-1 .97-1 2-2 2-2 2-1.917 2-1.666 1-.723 2-1.361 1-.666 2-1.278 1-.556 1-.583 2-1.028 1-.444 1-.556 1-.444 1-.528 2-.861 1-.361 2-.639 2-.528 1.89-.528.8-.361.53-.166.78-.806-1.5-.694-.56.027-1-.055-1.94.416-2 .639-2 .695-1 .361-1 .444-1 .417-2 .972-1 .556-1 .444-1 .556-2 1-1 .444-1 .556-1 .472-2 1.139-1 .639-2 1.361-1 .75-1 .722-2 1.528-2 1.694-1 .945-1 .972-2 2-2 2-1 1-1.92 2-.86 1-1.58 2-.78 1-1.47 2-.7 1-.69 1-1.33 2-1.34 2-.66 1-.64 1-.64 1-1.14 2-.47 1-.56 1-.44 1-.56 1-.97 2-.42 1-.83 2-.39 1-.8 2-.42 1-.7 2-.27 1-.23 1-.38 2-.2 1-.22 1-.31 2-.05 1-.03 2v1l.08 2 .42 1.972.44.917 1.25 1.333 1.34.389L1072 536m-128-72l.361 1.222.361.361 1.389 1.139.917.445L949 468l1 .389 1 .417 2 .805 1 .389 2 .833 1 .417 2 .972 1 .528 1 .417 1 .444 2 .778 1 .444 1 .417 2 .972 1 .556 1 .444 1 .556 1 .472 2 1.139 2 1.222 2 1.195 1 .583 1 .639 2 1.361 1 .75 2 1.5 1 .75 2 1.694 2 1.917 1.972 2 .945 1 1.694 2 .75 1 1.472 2 .723 1 1.166 2 .445 1 .805 2 .358 1 .67 2 .58 2 .23 1 .38 2 .2 1 .22 1 .31 2 .05 1v2l-.05 1-.31 2-.42 2-.19 1-.42 2-.58 2-.33 1-.34 1-.719 2-.417 1-.722 1.944-.389 1.556L998 540l1.472-.528 1.338-.972.72-.75 1.22-1.778.47-.972.53-1 .42-1 .44-1 .7-2 .55-2 .5-2 .25-1 .31-2 .05-1 .03-2v-7l-.03-2-.05-1-.31-2-.25-1-.22-1-.28-1-.25-1-.64-2-.36-1-.44-1-.42-1-1-2-1.19-2-.73-1-1.469-2-.75-1-1.694-2-.945-1-.972-1-2-1.917-2-1.694-1-.75-2-1.5-1-.75-2-1.361-2-1.222-2-1.195-2-1.222-1-.556-1-.555-2-.889-2-.778-2-.861-1-.5-2-.861-1-.361-1-.361-1-.334-1-.333-2-.667-5-1.666-2-.667-2-.611-1-.25-2-.5-1-.25-1.944-.306-1-.055L944 464m85 24.417l-1 .277-2 .695-2 .889-1 .555-1 .556-2 1.305-.97.723-1.81 1.666-1.53 1.917-.66 1-.64 1-.56 1-.58 1-.47 1-1 2-.53 1-.81 2-.58 2-.22 1-.25 1-.31 2-.08 2v6l.08 2 .34 2 .3 1 .39 1 1.2 2 1.72 1.917 1.97 1.611 1 .611 1 .583 1 .417 1 .417 2 .583 1 .222 1 .25 2 .306 1 .055 2 .028h8l2-.083 2-.306 1-.25 1-.222 2-.583 2-.806 1-.528 2-1 1-.472 2-1.139 2-1.305 1-.723 1.97-1.666.95-.945 1.66-1.972 1.39-2 .61-1 1-2 .39-1 .61-2 .34-2 .08-2v-1l-.08-2-.17-1-.22-1-.81-2-.58-1-.58-1-.73-1-1.47-2-.75-.972-1.69-1.806-1.92-1.528-2-1.305-2-1.139-1-.472-1-.556-1-.444-1-.528-2-.861-1-.361-2-.639-1-.25-2-.5-1-.25-2-.306-1-.055-2-.028-2 .083-2 .334z"></path>
    <path d="M1023 496l-1.83 2.056-.81 1-1.28 1.944-1 2-.75 2-.64 2-.27 1-.34 2-.08 2v6l.08 2 .17 1 .25 1 1 1.972 1.58 1.778.95.778 1.97 1.194 2 .806 1 .222 2 .306 2 .333 1 .222 2 .306h2l2-.306 2-.389 1-.139 2-.166 2-.389 1-.361 2-.806 1-.417 2-1.027 2-1.334 1-.805.97-.861.92-.945 1.47-1.972.92-2 .5-2 .14-1 .05-1-.05-2-.42-2-.44-1-1.31-2-1.78-1.972-.97-.945-2-1.611-1-.611-1-.583-2-.889-1-.361-2-.695-1-.333-2-.583-1-.195-1-.139-2-.166-1-.139-2-.389-2-.306-1-.055-2-.056-1-.055-1.94-.334L1023 496z" fill="transparent"></path>
    <path class="srk-label" stroke="#eee" stroke-width="3" fill="transparent" d="M970 685l-1.5.278-1.556.583-.944.389-1
    .528-1 .444-1 .556-1 .444-2 1-1 .556-1 .444-1 .556-1 .444-1 .556-2 1-1 .444-1 .556-2 .972-1 .417-1 .444-2 .778-1 .444-1 .417-2 .972-1 .556-1 .444-1
    .556-1 .444-2 1-1 .556-2 .972-1 .417-1 .444-2 .778-1 .444-1 .417-2 .972-1 .556-1 .444-1 .528-1 .417-1 .444-2 .778-1 .444-1 .417-1 .528-1 .444-1
    .528-2 .861-2 .778-2 .805-1 .417-2 .722-1 .334-1.944.694-1 .472-.556.195-1.5.972.778 1.111 1.333.389 1.889-.167 2-.5 1-.277 1-.389 2-.778 2-.778 2-.861
    1-.5 2-.861 2-.778 1-.444 2-.945 1-.444 1-.528 2-.861 2-.778 1-.444 1-.417 2-.972 1-.556 1-.444 1-.556 1-.444 2-1 1-.528 1-.417 1-.444 2-.778 1-.444 1-.417 1-.528 2-1
    1-.444 1-.556 1-.444 1-.556 1-.444 1-.556 2-1 1-.444 1-.556 1-.444 1-.556 1-.444 1-.556 1-.444 1-.556 2-1 1-.444 1-.556 1-.444 1-.556 2-.972 1-.361 1-.306 2 .223 2 1.305
    1 .917 1 .972 2 1.972 1 .945 2 1.694 1 .778 2 1.694 2 1.917 2 2 3 3 2 2 4 4 2 2 1.92 2 .86 1 .83 1 1.61 2 1.78 2 1.78 2 .8 1 1.42 2 .67 1 .66 1 1.28 2 1.11 2 .89 2 .36 1
    .61 2 .17 1 .08 1-.11 1-.58 2-1 1.972-.61.945-1.61 1.666-1.92 1.389-1 .611-2 1-1 .389-2 .695-1 .333-2 .667-1 .333-2 .583-1 .223-2 .388-2 .417-2 .333-1 .112-2 .333-1 .222-2
        .306-1 .055-2 .056-1 .055-2 .306-1 .222-2 .306-1 .055-2 .028h-39l-1-.028-1-.055-2-.306-1-.222-2-.306-2-.111-1-.055-2-.306-2-.389-1-.139-2-.166-1-.139-2-.389-1-.195-2-.388-1-.195-1-.222-1-.195-2-.388-1-.195-2-.472-1-.278-1-.222-1-.278-1-.222-2-.5-1-.278-1-.222-2-.5-1-.278-1-.222-2-.528-1-.305-2-.612-1-.305-1-.25-2-.528-2-.611-2-.667-1-.361-1-.361-2-.805-1-.417-1-.361-1-.361-1-.334-2-.722-1-.417-2-.805-2-.778-2-.861-1-.5-2-.861-2-.778-1-.444-1-.417-1-.528-2-1-1-.444-1-.556-1-.444-1-.556-2-1-1-.472-1-.583-1-.556-2-1.222-2-1.139-1-.5-2-1.139-2-1.222-2-1.195-1-.583-1-.639-1-.639-2-1.333-2-1.333-1-.667-2-1.417-2-1.666-2-1.917-1.889-1.944-.805-1-.528-.556L814 707l2.056-.611 1-.25.944-.278 1-.222 1-.25 2-.333 1-.112 1-.166 2-.389 2-.306 1-.055 2-.111 2-.306 2-.389 1-.139 2-.083h1l1.944-.056 1-.194.556-.028L844 702l-.778-.722-.528-.028-.805-.194-.917-.028L839 701h-13l-1 .028-1 .055-2 .306-1 .222-2 .389-2 .389-1 .25-1 .25-1.972.805-.917.639-1.389 1.695-.583 1.972-.028 1 .389 2 1 2 .75 1 1.778 2 1.972 1.917 2 1.694 1 .75 2 1.5 1 .75 2 1.389 2 1.333 1 .639 1 .639 1 .583 2 1.195 2 1.222 2 1.139 1 .5 2 1.139 2 1.222 1 .556 1 .583 1 .472 2 1 1 .556 1 .444 1 .556 1 .444 1 .556 1 .444 2 1 1 .528 1 .417 1 .444 2 .778 2 .805 1 .417 2 .778 2 .805 1 .417 1 .361 1 .361 2 .667 6 2 6 2 2 .667 1 .333 1 .306 1 .305 2 .528 1 .222 1 .278 1 .222 1 .278 2 .5 1 .222 1 .278 2 .472 1 .195 2 .388 1 .195 1 .222 1 .195 2 .388 1 .195 1 .222 2 .333 1 .112 2 .333 1 .222 2 .333 1 .112 2 .333 1 .222 2 .306 1 .055 1 .028h2l2 .028 1 .055 2 .306 1 .222 2 .306 1 .055 2 .028h26l2-.083 1-.139 1-.167 2-.389 1-.139 2-.083h3l2-.028 1-.055 2-.306 1-.222 2-.306 2-.166 2-.306 1-.222 2-.333 1-.112 2-.333 1-.25 2-.5 1-.222 1-.278 1-.222 2-.528 1-.305 2-.695 2-.861 1-.528 1-.444 1-.556 1-.472 1-.583 1.92-1.195 1.69-1.389.75-.805.75-.861 1.28-1.917.5-1 .39-1 .5-2 .19-2 .03-1-.08-2-.14-1-.2-1-.27-1-.7-2-.44-1-.45-1-.55-1-.56-1-1.3-2-.7-1-.75-1-1.5-2-.75-1-.8-1-1.62-2-.8-1-.78-1-1.69-2-.95-1-.97-1-2-2-5-5-1-1-2-2-4-4-2-2-1-1-2-1.917-1-.861-2-1.611-1.972-1.694-1.722-1.861-.528-.556L977 684l1.5-.278 1.556-.583.944-.389 1-.528 1-.444 1-.556 2-1 1-.444 1-.556 2-.972 1-.417 1-.444 2-.778 1-.444 1-.417 2-.972 1-.556 1-.444 2-1 1-.556 1-.444 1-.556 1-.444 1-.556 2-.972 1-.417 1-.444 2-.778 1-.444 1-.417 2-.972 1-.556 2-1 1-.444 1-.556 1-.444 1-.556 2-.972 2-.861 2-.778 2-.861 1-.5 2-.861 2-.778 2-.861 1-.5 2-.861 2-.778 2-.861 2-.972 1-.528 2-.861 2-.778 2-.805 1-.417 2-.778 2-.805 1-.417 2-.722 1-.334 1-.361 1-.361 1-.417 2-.805 2-.778 2-.805 1-.417 1-.361 1-.361 2-.667 2-.667 1-.333 2-.667 2-.722 2-.805 1-.417 1-.361 1-.361 2-.667 2-.611 2-.528 1-.25 1-.305 2-.612 1-.305 1-.25 1.94-.528L1106 631l-1.5 1.222-.56.361-1.94 1.223-1 .583-2 1.222-1 .583-2 1.195-2 1.222-1 .556-1 .583-2 1.028-1 .444-1 .556-1 .444-2 1-1 .556-1 .444-1 .556-1 .444-1 .556-1 .444-1 .556-1 .444-1 .556-2 1-1 .444-1 .556-2 .972-1 .417-1 .444-2 .778-1 .444-1 .417-2 .972-1 .556-1 .444-2 1-1 .528-1 .417-1 .444-2 .778-1 .444-1 .417-2 .972-1 .528-2 .861-2 .778-1 .444-1 .417-1 .528-2 .972-1 .417-1 .444-2 .778-1 .444-1 .417-1 .528-2 .972-2 .861-2 .778-2 .861-1 .528-2 1-1 .444-1 .556-1 .444-1 .556-1 .444-1 .556-1 .444-1 .556-1 .472-1 .583-1 .556-2 1.305-1 .723-.94.75-1.56 1.361L1003 684l.25 1.444.33 1.112.42 1.444 1.5.25 1.56.361 1.94.306 1 .055 1 .028h13l2-.028 1-.055 2-.306 1-.222 2-.306 1-.055 2-.028h15l2-.083 1-.139 2-.389 2-.306 1-.055 1-.028h9l2-.028 1-.055 2-.306 1-.222 2-.306 1-.055 2-.028h15l2-.028 1-.055 2-.306 1-.222 2-.306 1-.055 2-.056.94-.028 1-.194.56-.028 1.5-.722-.78-.722-.53-.028-.8-.194-.92-.028L1104 683h-31l-1 .028-1 .055-2 .306-2 .389-1 .139-2 .083h-13l-2 .028-1 .055-2 .306-1 .222-2 .306-1 .055-2 .028h-31l.78-1.25.53-.389.8-.722 1.89-1.25 1-.556 1-.583 2-1.028 1-.444 2-1 1-.556 1-.444 1-.556 2-.972 1-.417 1-.444 2-.778 1-.444 1-.417 1-.528 1-.444 1-.556 2-.972 1-.417 1-.444 2-.778 1-.444 1-.417 1-.528 2-.972 2-.861 2-.778 2-.861 2-.972 1-.556 1-.444 1-.528 1-.417 1-.444 2-.778 1-.444 1-.417 1-.528 2-1 1-.444 1-.556 1-.444 1-.556 2-1 1-.444 1-.556 1-.444 1-.556 1-.444 1-.556 1-.444 1-.556 2-1 1-.444 1-.556 1-.444 1-.556 1-.444 1-.556 1-.444 2-1 1-.556 1-.444 1-.556 1-.444 2-1.028 1-.583 1-.556 2-1.222 2-1.195 1-.583 1-.639 2-1.305 2-1.361.97-.723 1.7-1.666 1-1.861.22-1L1112 627l-1.5.083-.56.139-1.94.389-1 .195-2 .388-1 .195-1 .25-1 .222-2 .528-1 .305-2 .612-1 .305-2 .528-1 .25-2 .611-1 .333-2 .667-1 .333-3 1-1 .334-2 .722-1 .417-2 .805-2 .722-1 .334-2 .666-1 .334-1 .361-1 .361-1 .417-2 .805-2 .778-2 .805-1 .417-2 .778-2 .805-1 .417-2 .778-1 .417-2 .805-2 .778-2 .861-1 .5-2 .861-2 .778-2 .861-1 .5-2 .861-2 .778-2 .861-1 .5-2 .861-2 .778-2 .861-2 .972-1 .556-1 .444-2 1-1 .528-1 .417-1 .444-2 .778-2 .861-1 .528-1 .444-1 .556-2 1-1 .444-1 .556-1 .444-1 .556-2 1-1 .444-1 .556-2 .972-1 .417-1 .444-2 .778-1 .444-1 .417-2 .972-1 .556-2 1-1 .444-1 .556-1 .444-1 .556-2 .972-1 .417-1 .444-2 .778-1 .389-2 .416-1-.166-1-.445-2-1.611-1-.972-2-2-1-1-1-1-2-2-8-8-5-5-2-2-.972-1-.945-1-1.694-2-.778-1-1.694-2-.945-1-1.972-2-2-2-.972-1-.945-1-1.694-2-.778-1-.833-1-1.722-2-.834-1-.833-1-1.528-2-.722-1-.778-1-.722-1-1.5-2-.75-1-1.389-2-.667-1-1.333-2-1.333-2-.639-1-.639-1-1.139-2-.472-1-1-2-.528-1-.861-2-.695-2-.305-1-.25-1-.278-1-.472-2-.306-2-.055-1-.028-2v-1l.083-2 .167-1 .222-1 .389-1 .417-1 1.194-2 1.611-1.972 1.917-1.806 1-.805 2-1.334 2-1 2-.694 1-.25 2-.5 1-.25 2-.306 1-.055 2-.028h18l1 .028 1 .055 2 .306 1 .222 2 .306 1 .055 2 .111 1 .139 2 .389 1 .195 2 .388 1 .195 1 .222 2 .333 1 .112 2 .361 1 .277 2 .612 1 .305 2 .528 1 .222 1 .278 1 .222 2 .528 1 .305 1 .306 2 .667 1 .361 1 .361 1 .417 2 .805 2 .778 1 .444 1 .445 1.972 1.194 1.778 1.611.78.917 1.25 1.667.64.611.36.361 1.22.361v-1.5l-.11-1.556-.61-1.916-1.39-1.778-.92-.778-1.97-1.222-1-.472-1-.528-2-.861-2-.778-2-.805-1-.417-2-.695-2-.555-1-.278-1-.25-1-.305-2-.612-1-.305-2-.528-1-.222-1-.25-1-.195-2-.388-1-.195-1-.222-1-.195-2-.388-1-.195-2-.389-2-.222-1-.083-2-.306-1-.222-2-.306-1-.055-2-.028-2-.028-1-.055-2-.306-1-.222-2-.306-1-.055-2-.028h-8l-2 .083-1 .139-1 .167-2 .389-1 .139-2 .111-1 .055-2 .334-2 .583-2 .694-1 .389-2 1-2 1.25-.972.667-1.806 1.417-1.528 1.666-.666.945-.611.972-1 2-.389 1-.611 2-.334 2-.055 1-.028 1v4l.028 1 .055 1 .306 2 .25 1 .5 2 .25 1 .611 2 .667 2 .722 2 .444 1 .417 1 .528 1 .472 1 1.139 2 1.278 2 1.333 2 2 3 1.333 2 .667 1 1.417 2 .777 1 1.612 2 1.583 2 1.611 2 1.611 2 .778 1 1.694 2 .945 1 .972 1 1.972 2 .945 1 1.694 2 .778 1 1.694 2 .945 1 1.972 2 1 1 2 2 2 2 8 8 4 4 1 1 2 2 1 1 1.972 2 .917.944.805 1 .528.556.778 1.5m172-52l1.44-.417 1.12-.333 1.44-.25-.75 1.5-.08.556-.56 1.944-.61 2-.67 2-.36 1-.36 1-.42 1-.8 2-.78 2-.42 1-.8 2-.78 2-.44 1-.42 1-.97 2-.56 1-.44 1-.53 1-.42 1-.44 1-.78 2-.44 1-.45 1-.55 1-.56 1-1.22 2-.56 1-.58 1-.47 1-.56 1-.47 1-1.14 2-.64 1-1.3 2-1.36 2-.7 1-.75 1-.72 1-1.53 2-1.67 2-.88 1-1.67 2-.78 1-1.69 2-.95 1-1.97 2-2 2-1 .972-1 .945-2 1.694-.97.778-.92.833-1.33 1.75-.39 1.528.61 1.5 1.5-.528.56-.361 1-.528.94-.611 1-.639 1-.666 2-1.334 2-1.333 1-.667 1-.666 1-.667 2-1.333 1-.667 1-.667 2-1.333 1-.667 2-1.333 3-2 1-.667 1-.666 2-1.334 1-.666 2-1.278 1-.583 2-1.195 2-1.222 2-1.195 1-.583 1-.639 1-.639 1-.666 2-1.278 1-.583 2-1.195 2-1.222 1-.583 2-1.195 2-1.222 1-.556 1-.583 1-.5 2-1.139 2-1.222 2-1.139 1.89-1.056.8-.611.53-.361.78-1.222h2l.78 1.472 1.33 1.278 1.89 1.139 2 .722 1 .25 2 .5 1 .25 2 .306 1 .055 2 .111 2 .306 1 .222 2 .306 1 .055 1 .028h10l2-.028 2-.194.97-.195 1.7-.639.61-.527.36-.25.36-1.167-1.5-.083-.56-.139-1-.167-.94-.222-2-.306-1-.055-2-.028-2-.028-1-.055-2-.306-1-.222-2-.306-1-.055-2-.111-1-.139-2-.389-2-.333-1-.112-2-.361-1-.277-1.94-.612-1.56-.444-1.5-.25v-2l1.5-.528.56-.361 1-.528 1.94-1.194 1-.556 1-.583 1-.472 2-1 1-.556 1-.444 1-.556 2-1 1-.444 1-.556 1-.444 1-.556 1-.444 1-.528 2-.861 2-.778 1-.444 1-.417 1-.528 2-1 1-.444 1-.556 2-.972 1-.417 1-.444 2-.778 1-.444 1-.417 1-.528 2-1 1-.444 1-.556 2-.972 1-.417 1-.444 2-.778 2-.861 1-.528 2-.972 1-.417 1.89-.916 1.39-1.167.39-.806.33-1.944-1.5.083-1.56.334-1.94.611-1 .361-2 .861-1 .5-2 .861-2 .778-2 .861-1 .5-2 .861-2 .778-2 .861-1 .5-2 .861-2 .778-2 .861-2 .972-1 .556-1 .444-1 .528-1 .417-1 .444-2 .778-1 .444-1 .417-2 .972-1 .556-1 .444-2 1-1 .528-1 .417-1 .444-2 .778-2 .861-1 .528-1 .472-1 .583-1 .556-2 1.222-1 .583-2 1.25-1 .723-2 1.389-1 .611-2 1.222-2 1.222-2 1.139-1 .472-1 .556-1 .472-1 .583-1 .556-2 1.222-2 1.139-1 .5-2 1.139-2 1.222-2 1.139-1 .5-2 1.139-1 .639-1 .639-1 .666-2 1.278-1 .583-2 1.195-2 1.222-2 1.195-1 .583-2 1.278-1 .666-2 1.334-1 .666-2 1.278-1 .583-2 1.195-2 1.278-.94.639-1 .611-.56.389-1.5.694 1.5-1.5 1.47-1.556 1.64-1.944.75-1 .78-1 1.47-2 .7-1 .69-1 1.33-2 1.34-2 .66-1 1.28-2 .56-1 .58-1 .47-1 1-2 .56-1 .44-1 .56-1 .44-1 .56-1 .44-1 1-2 .53-1 .42-1 .44-1 .78-2 .86-2 .5-1 .86-2 .78-2 .8-2 .42-1 .78-2 .8-2 .78-2 .64-2 .25-1 .28-1 .47-2 .31-2 .05-.944.03-1V630l-1.5.028-1.53.305-.86.334-1.33.944L1142 633z"></path>
</svg>
